{"title":"BBC Proms 2011_26 French Night with the BBC Scottish Symphony Or","uid":6600537,"size":4874250637,"categoryP":"video","categoryS":"music_videos","magnet":"?xt=urn:btih:09328a78240ea34809eacc311a132885a4523444&amp;dn=BBC+Proms+2011_26+French+Night+with+the+BBC+Scottish+Symphony+Or&amp;tr=udp%3A%2F%2Ftracker.openbittorrent.com%3A80&amp;tr=udp%3A%2F%2Fopen.demonii.com%3A1337&amp;tr=udp%3A%2F%2Ftracker.coppersurfer.tk%3A6969&amp;tr=udp%3A%2F%2Fexodus.desync.com%3A6969","seeders":0,"leechers":1,"uploader":null,"files":4,"time":1313185367,"description":"BBC Proms 2011, Number 26\nRecorded 3 August\nBroadcast BBC4 7 August\nThanks to GringoLoco &amp; the BBC :)\n\nDebussy:\nPrÃƒÂ©lude a L'apres-midi d'un faune (8 mins)\n\nHenri Dutilleux:\n'Tout un monde lointain...' (27 mins)\nLynn Harrell: cello\nEncore: Bach: 2 BourrÃƒÂ©es from C major Cello Suite\n\nRavel:\nBolero (15 mins)\n\nRavel:\nDaphnis and ChloÃƒÂ« (50 mins)\n\nEdinburgh Festival Chorus\nBBC Scottish Symphony Orchestra\nDonald Runnicles: conductor\n\n*************************************************\n\nFormat: DVD ISO PAL 16:9\nRuntime: 1:49 (Interval cut)\n\nVideo\nID                               : 224 (0xE0)\nFormat                           : MPEG Video\nFormat version                   : Version 2\nFormat profile                   : Main@Main\nFormat settings, BVOP            : Yes\nFormat settings, Matrix          : Default\nBit rate mode                    : Variable\nBit rate                         : 3 292 Kbps\nNominal bit rate                 : 9 544 Kbps\nWidth                            : 720 pixels\nHeight                           : 576 pixels\nDisplay aspect ratio             : 16:9\nFrame rate                       : 25.000 fps\nStandard                         : PAL\nColor space                      : YUV\nChroma subsampling               : 4:2:0\nBit depth                        : 8 bits\nScan type                        : Interlaced\nScan order                       : Top Field First\nCompression mode                 : Lossy\nBits/(Pixel*Frame)               : 0.317\n\nAudio\nID                               : 192 (0xC0)\nFormat                           : MPEG Audio\nFormat version                   : Version 1\nFormat profile                   : Layer 2\nBit rate mode                    : Constant\nBit rate                         : 256 Kbps\nChannel(s)                       : 2 channels\nSampling rate                    : 48.0 KHz\nCompression mode                 : Lossy\n\n**********************************************\n\nFormat: MP4 468p\nRuntime: 2:13\n\nVideo\nID                               : 1\nFormat                           : AVC\nFormat/Info                      : Advanced Video Codec\nFormat profile                   : &lt;a class=&quot;__cf_email__&quot; href=&quot;/cdn-cgi/l/email-protection&quot; data-cfemail=&quot;2b664a42456b6718051b&quot;&gt;[email&amp;#160;protected]&lt;/a&gt;&lt;script cf-hash='f9e31' type=&quot;text/javascript&quot;&gt;\n/* &lt;![CDATA[ */!function(){try{var t=&quot;currentScript&quot;in document?document.currentScript:function(){for(var t=document.getElementsByTagName(&quot;script&quot;),e=t.length;e--;)if(t[e].getAttribute(&quot;cf-hash&quot;))return t[e]}();if(t&amp;&amp;t.previousSibling){var e,r,n,i,c=t.previousSibling,a=c.getAttribute(&quot;data-cfemail&quot;);if(a){for(e=&quot;&quot;,r=parseInt(a.substr(0,2),16),n=2;a.length-n;n+=2)i=parseInt(a.substr(n,2),16)^r,e+=String.fromCharCode(i);e=document.createTextNode(e),c.parentNode.replaceChild(e,c)}}}catch(u){}}();/* ]]&gt; */&lt;/script&gt;\nFormat settings, CABAC           : Yes\nFormat settings, ReFrames        : 4 frames\nCodec ID                         : avc1\nCodec ID/Info                    : Advanced Video Coding\nDuration                         : 2h 13mn\nBit rate mode                    : Constant\nBit rate                         : 1 404 Kbps\nWidth                            : 832 pixels\nHeight                           : 468 pixels\nDisplay aspect ratio             : 16:9\nFrame rate mode                  : Constant\nFrame rate                       : 25.000 fps\nStandard                         : PAL\nColor space                      : YUV\nChroma subsampling               : 4:2:0\nBit depth                        : 8 bits\nScan type                        : Progressive\nBits/(Pixel*Frame)               : 0.144\nStream size                      : 1.31 GiB (93%)\n\nAudio\nID                               : 2\nFormat                           : AAC\nFormat/Info                      : Advanced Audio Codec\nFormat profile                   : HE-AAC / LC\nCodec ID                         : 40\nDuration                         : 2h 13mn\nBit rate mode                    : Variable\nBit rate                         : 96.0 Kbps\nChannel(s)                       : 2 channels\nChannel positions                : Front: L R\nSampling rate                    : 48.0 KHz / 24.0 KHz\nCompression mode                 : Lossy\nStream size                      : 90.7 MiB (6%)\n","torrent":{"xt":"urn:btih:09328a78240ea34809eacc311a132885a4523444","amp;dn":"BBC+Proms+2011_26+French+Night+with+the+BBC+Scottish+Symphony+Or","amp;tr":["udp%3A%2F%2Ftracker.openbittorrent.com%3A80","udp%3A%2F%2Fopen.demonii.com%3A1337","udp%3A%2F%2Ftracker.coppersurfer.tk%3A6969","udp%3A%2F%2Fexodus.desync.com%3A6969"],"infoHash":"09328a78240ea34809eacc311a132885a4523444","infoHashBuffer":{"type":"Buffer","data":[9,50,138,120,36,14,163,72,9,234,204,49,26,19,40,133,164,82,52,68]},"announce":[],"urlList":[]}}